<?xml version="1.0"?>
<svg width="16" height="16" xmlns="http://www.w3.org/2000/svg" xmlns:svg="http://www.w3.org/2000/svg" preserveAspectRatio="xMinYMin meet">
 <g>
  <title>Layer 1</title>
  <g stroke="null" id="svg_1" fill="#205081">
   <path stroke="null" id="svg_2" d="m7.998921,0.225254l0,0c-3.684384,0 -6.710842,0.991503 -6.710842,2.247407c0,0.330501 0.789511,5.023618 1.118473,6.874424c0.131585,0.859303 2.30274,2.049107 5.592368,2.049107l0,0c3.289628,0 5.39499,-1.189804 5.592368,-2.049107c0.328962,-1.850806 1.118473,-6.543922 1.118473,-6.874424c-0.065793,-1.255904 -3.026458,-2.247407 -6.710842,-2.247407l0,0zm0,9.650633c-1.184266,0 -2.105362,-0.925404 -2.105362,-2.115208c0,-1.189804 0.921096,-2.115207 2.105362,-2.115207c1.184266,0 2.105362,0.925403 2.105362,2.115207c0,1.123704 -0.921096,2.115208 -2.105362,2.115208l0,0zm0,-6.742223c-2.368533,0 -4.276517,-0.396601 -4.276517,-0.925403c0,-0.528802 1.907984,-0.925404 4.276517,-0.925404c2.368532,0 4.276517,0.396602 4.276517,0.925404c0,0.528802 -1.907985,0.925403 -4.276517,0.925403l0,0z"/>
   <path stroke="null" id="svg_3" d="m12.854666,11.131791c-0.131586,0 -0.197378,0.0661 -0.197378,0.0661c0,0 -1.644814,1.322005 -4.60548,1.322005c-2.960665,0 -4.60548,-1.322005 -4.60548,-1.322005c0,0 -0.131585,-0.0661 -0.197378,-0.0661c-0.131585,0 -0.263171,0.0661 -0.263171,0.264401l0,0.0661c0.263171,1.388105 0.460548,2.379608 0.460548,2.511808c0.197378,0.991504 2.171155,1.784707 4.539687,1.784707l0,0c2.368532,0 4.342309,-0.793202 4.539687,-1.784707c0,-0.1322 0.197377,-1.123703 0.460548,-2.511808l0,-0.0661c0.065792,-0.132201 0,-0.264401 -0.131585,-0.264401l0,0z"/>
   <circle stroke="null" id="svg_4" r="0.917274" cy="7.694582" cx="7.998921"/>
  </g>
 </g>
</svg>